<mxfile host="app.diagrams.net" modified="2021-04-01T03:36:27.460Z" agent="5.0 (Windows NT 6.1; Win64; x64) AppleWebKit/537.36 (KHTML, like Gecko) Chrome/89.0.4389.90 Safari/537.36" etag="3hLWjPmqVH1ZEfWfmWMv" version="14.5.4" type="github">
  <diagram id="prtHgNgQTEPvFCAcTncT" name="Page-1">
    <mxGraphModel dx="978" dy="577" grid="0" gridSize="10" guides="0" tooltips="1" connect="1" arrows="1" fold="1" page="1" pageScale="1" pageWidth="1654" pageHeight="1169" background="none" math="0" shadow="0">
      <root>
        <mxCell id="0" />
        <mxCell id="1" parent="0" />
        <mxCell id="5vjjJ-k5UFspVIfy8Jrb-1" value="" style="shape=link;html=1;width=86;" edge="1" parent="1">
          <mxGeometry width="100" relative="1" as="geometry">
            <mxPoint x="34" y="394.58" as="sourcePoint" />
            <mxPoint x="794" y="394.58" as="targetPoint" />
          </mxGeometry>
        </mxCell>
        <mxCell id="5vjjJ-k5UFspVIfy8Jrb-2" value="9" style="ellipse;whiteSpace=wrap;html=1;aspect=fixed;fillColor=#dae8fc;strokeColor=#6c8ebf;" vertex="1" parent="1">
          <mxGeometry x="90" y="370" width="50" height="50" as="geometry" />
        </mxCell>
        <mxCell id="5vjjJ-k5UFspVIfy8Jrb-3" value="8" style="ellipse;whiteSpace=wrap;html=1;aspect=fixed;fillColor=#dae8fc;strokeColor=#6c8ebf;" vertex="1" parent="1">
          <mxGeometry x="164" y="370" width="50" height="50" as="geometry" />
        </mxCell>
        <mxCell id="5vjjJ-k5UFspVIfy8Jrb-4" value="7" style="ellipse;whiteSpace=wrap;html=1;aspect=fixed;fillColor=#dae8fc;strokeColor=#6c8ebf;" vertex="1" parent="1">
          <mxGeometry x="238" y="370" width="50" height="50" as="geometry" />
        </mxCell>
        <mxCell id="5vjjJ-k5UFspVIfy8Jrb-5" value="6" style="ellipse;whiteSpace=wrap;html=1;aspect=fixed;fillColor=#dae8fc;strokeColor=#6c8ebf;" vertex="1" parent="1">
          <mxGeometry x="314" y="370" width="50" height="50" as="geometry" />
        </mxCell>
        <mxCell id="5vjjJ-k5UFspVIfy8Jrb-6" value="5" style="ellipse;whiteSpace=wrap;html=1;aspect=fixed;fillColor=#dae8fc;strokeColor=#6c8ebf;" vertex="1" parent="1">
          <mxGeometry x="392" y="370" width="50" height="50" as="geometry" />
        </mxCell>
        <mxCell id="5vjjJ-k5UFspVIfy8Jrb-7" value="4" style="ellipse;whiteSpace=wrap;html=1;aspect=fixed;fillColor=#dae8fc;strokeColor=#6c8ebf;" vertex="1" parent="1">
          <mxGeometry x="467" y="370" width="50" height="50" as="geometry" />
        </mxCell>
        <mxCell id="5vjjJ-k5UFspVIfy8Jrb-8" value="3" style="ellipse;whiteSpace=wrap;html=1;aspect=fixed;fillColor=#dae8fc;strokeColor=#6c8ebf;" vertex="1" parent="1">
          <mxGeometry x="544" y="370" width="50" height="50" as="geometry" />
        </mxCell>
        <mxCell id="5vjjJ-k5UFspVIfy8Jrb-9" value="2" style="ellipse;whiteSpace=wrap;html=1;aspect=fixed;fillColor=#dae8fc;strokeColor=#6c8ebf;" vertex="1" parent="1">
          <mxGeometry x="618" y="370" width="50" height="50" as="geometry" />
        </mxCell>
        <mxCell id="5vjjJ-k5UFspVIfy8Jrb-10" value="1" style="ellipse;whiteSpace=wrap;html=1;aspect=fixed;fontSize=12;fillColor=#dae8fc;strokeColor=#6c8ebf;" vertex="1" parent="1">
          <mxGeometry x="692" y="370" width="50" height="50" as="geometry" />
        </mxCell>
        <mxCell id="5vjjJ-k5UFspVIfy8Jrb-11" value="" style="shape=link;html=1;width=86;" edge="1" parent="1">
          <mxGeometry width="100" relative="1" as="geometry">
            <mxPoint x="32.999999999999886" y="534.5799999999999" as="sourcePoint" />
            <mxPoint x="793.0000000000002" y="534.5799999999999" as="targetPoint" />
          </mxGeometry>
        </mxCell>
        <mxCell id="5vjjJ-k5UFspVIfy8Jrb-12" value="7" style="ellipse;whiteSpace=wrap;html=1;aspect=fixed;fillColor=#dae8fc;strokeColor=#6c8ebf;" vertex="1" parent="1">
          <mxGeometry x="89" y="510" width="50" height="50" as="geometry" />
        </mxCell>
        <mxCell id="5vjjJ-k5UFspVIfy8Jrb-13" value="8" style="ellipse;whiteSpace=wrap;html=1;aspect=fixed;fillColor=#dae8fc;strokeColor=#6c8ebf;" vertex="1" parent="1">
          <mxGeometry x="163" y="510" width="50" height="50" as="geometry" />
        </mxCell>
        <mxCell id="5vjjJ-k5UFspVIfy8Jrb-14" value="9" style="ellipse;whiteSpace=wrap;html=1;aspect=fixed;fillColor=#dae8fc;strokeColor=#6c8ebf;" vertex="1" parent="1">
          <mxGeometry x="237" y="510" width="50" height="50" as="geometry" />
        </mxCell>
        <mxCell id="5vjjJ-k5UFspVIfy8Jrb-15" value="6" style="ellipse;whiteSpace=wrap;html=1;aspect=fixed;fillColor=#dae8fc;strokeColor=#6c8ebf;" vertex="1" parent="1">
          <mxGeometry x="313" y="510" width="50" height="50" as="geometry" />
        </mxCell>
        <mxCell id="5vjjJ-k5UFspVIfy8Jrb-16" value="3" style="ellipse;whiteSpace=wrap;html=1;aspect=fixed;fillColor=#dae8fc;strokeColor=#6c8ebf;" vertex="1" parent="1">
          <mxGeometry x="391" y="510" width="50" height="50" as="geometry" />
        </mxCell>
        <mxCell id="5vjjJ-k5UFspVIfy8Jrb-17" value="5" style="ellipse;whiteSpace=wrap;html=1;aspect=fixed;fillColor=#dae8fc;strokeColor=#6c8ebf;" vertex="1" parent="1">
          <mxGeometry x="466" y="510" width="50" height="50" as="geometry" />
        </mxCell>
        <mxCell id="5vjjJ-k5UFspVIfy8Jrb-18" value="2" style="ellipse;whiteSpace=wrap;html=1;aspect=fixed;fillColor=#dae8fc;strokeColor=#6c8ebf;" vertex="1" parent="1">
          <mxGeometry x="543" y="510" width="50" height="50" as="geometry" />
        </mxCell>
        <mxCell id="5vjjJ-k5UFspVIfy8Jrb-19" value="4" style="ellipse;whiteSpace=wrap;html=1;aspect=fixed;fillColor=#dae8fc;strokeColor=#6c8ebf;" vertex="1" parent="1">
          <mxGeometry x="617" y="510" width="50" height="50" as="geometry" />
        </mxCell>
        <mxCell id="5vjjJ-k5UFspVIfy8Jrb-20" value="1" style="ellipse;whiteSpace=wrap;html=1;aspect=fixed;fontSize=12;fillColor=#dae8fc;strokeColor=#6c8ebf;" vertex="1" parent="1">
          <mxGeometry x="691" y="510" width="50" height="50" as="geometry" />
        </mxCell>
        <mxCell id="5vjjJ-k5UFspVIfy8Jrb-21" value="理想情况" style="rounded=0;whiteSpace=wrap;html=1;fontSize=12;strokeColor=#FFFFFF;" vertex="1" parent="1">
          <mxGeometry x="372" y="440" width="90" height="40" as="geometry" />
        </mxCell>
        <mxCell id="5vjjJ-k5UFspVIfy8Jrb-22" value="实际情况" style="rounded=0;whiteSpace=wrap;html=1;fontSize=12;strokeColor=#FFFFFF;" vertex="1" parent="1">
          <mxGeometry x="372" y="580" width="90" height="40" as="geometry" />
        </mxCell>
      </root>
    </mxGraphModel>
  </diagram>
</mxfile>
